<?xml version="1.0" encoding="UTF-8" standalone="no"?>
<!-- Created with Inkscape (http://www.inkscape.org/) -->

<svg
   width="206.65527mm"
   height="43.459999mm"
   viewBox="0 0 206.65527 43.459999"
   version="1.1"
   id="svg5"
   xml:space="preserve"
   xmlns:inkscape="http://www.inkscape.org/namespaces/inkscape"
   xmlns:sodipodi="http://sodipodi.sourceforge.net/DTD/sodipodi-0.dtd"
   xmlns="http://www.w3.org/2000/svg"
   xmlns:svg="http://www.w3.org/2000/svg"><sodipodi:namedview
     id="namedview7"
     pagecolor="#ffffff"
     bordercolor="#000000"
     borderopacity="0.25"
     inkscape:showpageshadow="2"
     inkscape:pageopacity="0.0"
     inkscape:pagecheckerboard="0"
     inkscape:deskcolor="#d1d1d1"
     inkscape:document-units="mm"
     showgrid="false" /><defs
     id="defs2" /><g
     inkscape:label="Layer 1"
     inkscape:groupmode="layer"
     id="layer1"
     transform="translate(106.77503,-126.9961)"><path
       d="m -4.3134897,166.28581 c 0.22648,0 0.37666,0.1497 0.37666,0.37231 v 3.42372 c 0,0.22455 -0.1497,0.37425 -0.37666,0.37425 H -17.00105 c -0.22358,0 -0.3728,-0.14922 -0.3728,-0.37425 v -3.42372 c 0,-0.22213 0.14922,-0.37231 0.3728,-0.37231 z M -20.87918,126.99609 c 0.1101,0 0.20282,0.0377 0.26801,0.10189 l 0.001,4.8e-4 0.0145,0.0179 c 0.0555,0.0637 0.0884,0.14969 0.0884,0.25207 v 42.71006 c 0,0.0975 -0.0295,0.17964 -0.0802,0.24193 -0.0642,0.0831 -0.1666,0.13183 -0.29263,0.13183 h -85.52161 c -0.0845,0 -0.15694,-0.0203 -0.21634,-0.0579 v -4.9e-4 l -0.0208,-0.0164 c -0.0855,-0.0652 -0.13618,-0.16708 -0.13618,-0.29746 v -42.71103 c 0,-0.1637 0.0811,-0.28732 0.21344,-0.34189 l 0.007,-0.003 0.0497,-0.0145 0.0217,-0.006 0.0811,-0.007 z m 106.712865,41.30194 c -0.22213,0 -0.37086,-0.15066 -0.37086,-0.37714 v -3.00505 c 0,-0.22455 0.14825,-0.37714 0.37086,-0.37714 h 0.67074 c 1.41295,0 2.12232,-0.63597 2.6791,-2.14019 l 0.52153,-1.54043 -6.5495,-17.06017 c -0.0753,-0.226 0.0744,-0.37666 0.29891,-0.37666 h 3.68256 c 0.22309,0 0.37231,0.15066 0.44474,0.37666 l 4.05776,11.83719 h 0.0729 l 3.87088,-11.83719 c 0.0744,-0.226 0.22358,-0.37666 0.44475,-0.37666 h 3.53382 c 0.22503,0 0.37424,0.15066 0.29843,0.37666 l -6.84503,18.86378 c -1.56168,4.28424 -3.05237,5.63586 -6.02797,5.63586 l -1.1546,0.001 z m -110.878305,-2.01222 0.0753,-0.006 0.0222,-0.007 0.0497,-0.0135 0.008,-0.003 c 0.13038,-0.0536 0.21151,-0.17674 0.21199,-0.33947 v -34.37773 c 0,-0.16418 -0.0802,-0.28732 -0.21296,-0.34189 l -0.008,-0.003 -0.0507,-0.0135 -0.0217,-0.007 -0.0773,-0.006 h -77.18765 l -0.0773,0.006 -0.0724,0.0203 -0.008,0.003 c -0.13183,0.055 -0.21296,0.17722 -0.21296,0.34189 v 34.37772 c 4.8e-4,0.16226 0.0811,0.2854 0.21296,0.339 l 0.007,0.003 0.0507,0.0135 0.0222,0.007 0.0758,0.006 v 0.001 h 77.19208 z m -73.34874,-9.33579 c -0.372311,-1.12901 -0.556777,-2.55451 -0.556777,-4.47112 0,-1.91709 0.184466,-3.34549 0.556777,-4.47208 1.040155,-3.23202 3.795549,-4.99796 7.403252,-4.99796 2.679098,0 4.800935,1.08989 6.216298,2.81914 0.109134,0.14921 0.146317,0.37424 -0.03767,0.52442 l -2.343003,2.06727 c -0.18688,0.15115 -0.372311,0.11348 -0.522008,-0.0739 -0.893838,-1.01408 -1.823892,-1.57907 -3.312172,-1.57907 -1.599346,0 -2.82638,0.78954 -3.348389,2.36763 -0.295531,0.90398 -0.371346,1.95476 -0.371346,3.34501 0,1.38977 0.07533,2.47918 0.371346,3.38171 0.521526,1.53898 1.749043,2.32852 3.348389,2.32852 1.48828,0 2.418334,-0.56402 3.312172,-1.57617 0.149697,-0.19026 0.335128,-0.19026 0.522008,-0.0396 l 2.343003,2.06727 c 0.183983,0.1497 0.1468,0.33803 0.03767,0.52636 -1.414397,1.69206 -3.536235,2.7805 -6.216298,2.7805 -3.607703,-0.001 -6.363097,-1.76884 -7.403252,-4.99844 z m 81.29911,0 c -0.37231,-1.12901 -0.55678,-2.55451 -0.55678,-4.47112 0,-1.91709 0.18447,-3.34549 0.55678,-4.47208 1.04209,-3.23202 3.79458,-4.99796 7.4027703,-4.99796 2.68006,0 4.80238,1.08989 6.21533,2.81914 0.11058,0.14921 0.14922,0.37424 -0.0382,0.52442 l -2.34397,2.06727 c -0.18591,0.15115 -0.37086,0.11348 -0.52007,-0.0739 -0.89239,-1.01408 -1.82293,-1.57907 -3.31314,-1.57907 -1.5983803,0 -2.8268603,0.78954 -3.3469403,2.36763 -0.29843,0.90398 -0.37086,1.95476 -0.37086,3.34501 0,1.38977 0.0724,2.47918 0.37086,3.38171 0.52008,1.53898 1.74856,2.32852 3.3469403,2.32852 1.48973,0 2.42075,-0.56402 3.31314,-1.57617 0.14921,-0.19026 0.33464,-0.19026 0.52007,-0.0396 l 2.34397,2.06727 c 0.18737,0.1497 0.14922,0.33803 0.0382,0.52636 -1.41295,1.69206 -3.53527,2.7805 -6.21533,2.7805 -3.6077003,-0.001 -6.3602003,-1.76884 -7.4027703,-4.99844 z m 27.11982,-7.52736 c -0.0507,-1.95475 -1.0459397,-2.84425 -3.9771097,-2.84425 -2.01077,0 -3.23684,0.56547 -4.09301,1.24056 -0.18737,0.15066 -0.40757,0.113 -0.52298,-0.0753 l -1.37334996,-2.4816 c -0.113,-0.18736 -0.0744,-0.37279 0.0724,-0.48724 1.45206996,-1.05222 3.42323996,-1.76594 6.36309996,-1.76594 5.4692597,0 7.4780997,1.88039 7.4771397,6.31384 v 11.83719 c 0,0.22648 -0.14922,0.37666 -0.3728,0.37666 h -3.12481 c -0.22213,0 -0.37279,-0.15067 -0.37279,-0.37666 v -1.3154 h -0.0362 c -0.8561697,1.24007 -2.5313297,2.10348 -5.0592797,2.10348 -3.27258,0 -6.02845,-1.72731 -6.02845,-5.52382 0,-3.94332 2.75587,-5.74983 7.18305,-5.74983 l 1.3043,4.9e-4 h 0.17867 c 0.22309,0 0.37279,0.14969 0.37279,0.37424 v 2.40916 c 0,0.22358 -0.1497,0.37424 -0.37279,0.37424 l -0.81416,-0.001 c -2.67765,0 -3.86943,0.75332 -3.86943,2.44538 0,1.50228 1.07782,2.25174 3.08859,2.25174 2.5661,0 3.9795297,-1.01263 3.9795297,-3.07894 v -5.86282 l -10e-4,-0.14052 v -0.0237 h -4.8e-4 z m -49.995,5.23747 c 0.0468,0.28153 0.12169,0.54084 0.2115,0.78809 0.59541,1.76497 2.01078,2.74139 4.01768,2.74139 2.00933,0 3.31169,-0.7509 4.20312,-1.72876 0.18688,-0.18592 0.37231,-0.22503 0.55967,-0.0753 l 2.19331,1.95331 c 0.18543,0.15211 0.18543,0.33948 0.0377,0.52636 -1.52402,1.80361 -4.05631,3.08134 -7.36655,3.08134 -3.79459,0 -6.47272,-1.87894 -7.47666,-5.03417 -0.37424,-1.16619 -0.635,-2.55548 -0.635,-4.43442 0,-1.87894 0.22503,-3.30734 0.59541,-4.47208 1.00586,-3.15668 3.75836,-4.99699 7.33033,-4.99699 3.684,0 6.36165,1.91564 7.368,4.99699 0.40756,1.27629 0.59541,2.51684 0.59541,5.45043 0,0.22358 -0.14921,0.37279 -0.40998,0.37279 h -9.21362 c -0.0971,0 -0.1608,-0.0652 -0.1608,-0.16225 v -2.83362 c 0,-0.0971 0.0637,-0.16129 0.1608,-0.16129 l 0.30616,4.8e-4 -4.9e-4,4.8e-4 h 4.88834 c 0.14922,0 0.2231,-0.0739 0.2231,-0.22358 0,-0.64031 -0.0729,-1.08844 -0.2231,-1.54188 -0.48386,-1.4651 -1.82099,-2.32948 -3.49567,-2.32948 -1.71283,0 -3.05238,0.8639 -3.53624,2.32948 -0.0599,0.18447 -0.10865,0.3699 -0.1439,0.56692 v -4.8e-4 l -0.004,0.0237 -0.006,0.0324 c -0.14631,0.83638 -0.20571,1.49504 -0.23468,2.52554 0,1.09376 0.0797,1.83838 0.21488,2.60328 h 4.9e-4 z m 79.87071,0 c 0.0454,0.28153 0.12072,0.54084 0.21005,0.78809 0.5959,1.76497 2.01078,2.74139 4.01768,2.74139 2.01078,0 3.31218,-0.7509 4.20408,-1.72876 0.18688,-0.18592 0.37231,-0.22503 0.55919,-0.0753 l 2.19331,1.95331 c 0.18591,0.15211 0.18591,0.33948 0.0382,0.52636 -1.5245,1.80361 -4.05679,3.08134 -7.36703,3.08134 -3.79459,0 -6.4732,-1.87894 -7.47666,-5.03417 -0.37424,-1.16619 -0.635,-2.55548 -0.635,-4.43442 0,-1.87894 0.22454,-3.30734 0.59541,-4.47208 1.00586,-3.15668 3.75836,-4.99699 7.33081,-4.99699 3.68256,0 6.36117,1.91564 7.36704,4.99699 0.40756,1.27629 0.59444,2.51684 0.59444,5.45043 0,0.22358 -0.14921,0.37279 -0.40901,0.37279 h -9.21556 c -0.0956,0 -0.1608,-0.0652 -0.1608,-0.16225 v -2.83362 c 0,-0.0971 0.0652,-0.16129 0.1608,-0.16129 l 0.30857,4.8e-4 v 4.8e-4 h 4.88834 c 0.14922,0 0.22358,-0.0739 0.22358,-0.22358 0,-0.64031 -0.0744,-1.08844 -0.22358,-1.54188 -0.48386,-1.4651 -1.82099,-2.32948 -3.49567,-2.32948 -1.71283,0 -3.05286,0.8639 -3.53623,2.32948 -0.0599,0.18447 -0.10769,0.3699 -0.14487,0.56692 v -4.8e-4 l -0.004,0.0237 -0.006,0.0324 c -0.1468,0.83638 -0.2062,1.49504 -0.23372,2.52554 0,1.09376 0.0797,1.83838 0.21585,2.60328 h 4.8e-4 z m -7.5375,-18.6769 c 0.22213,0 0.37134,0.1497 0.37424,0.37376 v 24.79952 c 0,0.22792 -0.14969,0.37666 -0.37279,0.37666 h -3.42324 c -0.22455,0 -0.37376,-0.14922 -0.37376,-0.37666 v -1.35211 h -0.0362 c -0.85472,1.24201 -2.343,2.14164 -4.7623,2.14164 -3.04996,0 -5.28383,-1.46607 -6.2134,-4.35909 -0.44668,-1.38928 -0.63211,-2.66847 -0.63211,-5.10998 0,-2.44103 0.18543,-3.71925 0.63211,-5.11144 0.91894,-2.86163 3.11515,-4.3248 6.11392,-4.35619 v -4.8e-4 h 0.1497 l 2.20827,4.8e-4 h 0.17867 c 0.22358,0 0.3728,0.1497 0.3728,0.37425 v 3.01084 c 0,0.22358 -0.14922,0.37376 -0.3728,0.37376 l -1.46075,-4.8e-4 c -1.61963,0.0324 -2.7356,0.85665 -3.21173,2.32996 -0.2598,0.8243 -0.37135,1.72828 -0.37135,3.38026 0,1.65343 0.113,2.55403 0.37135,3.38171 0.48579,1.50229 1.63894,2.32948 3.31217,2.32948 1.70848,0 2.86453,-0.82719 3.34839,-2.32948 0.19895,-0.63887 0.31195,-1.32023 0.35251,-2.35749 h 0.0179 v -17.14564 c 0,-0.2231 0.14922,-0.37376 0.3728,-0.37376 h 3.42372 z m -113.714353,20.96775 c -0.409011,-1.27967 -0.595408,-2.48159 -0.595408,-4.47256 0,-1.98808 0.185914,-3.19145 0.595408,-4.46629 1.00442,-3.15668 3.755469,-4.99844 7.401323,-4.99844 3.60722,0 6.35971,1.84127 7.36413,4.99844 0.40708,1.27484 0.59445,2.47773 0.59445,4.46629 0,1.99097 -0.18737,3.19289 -0.59445,4.47256 -1.00538,3.15427 -3.75691,4.99506 -7.36413,4.99506 -3.645371,4.8e-4 -6.39642,-1.83983 -7.401323,-4.99506 z m 33.669803,-20.96775 c 0.2231,0 0.37231,0.14922 0.37086,0.3728 v 24.76474 c 0,0.22648 -0.14921,0.3757 -0.37231,0.3757 h -3.41744 c -0.22455,0 -0.37376,-0.1497 -0.37376,-0.3757 v -1.35065 h -0.0362 c -0.85231,1.24007 -2.33866,2.13874 -4.75506,2.13874 -3.04562,0 -5.27514,-1.46317 -6.20375,-4.35329 -0.44619,-1.38688 -0.63162,-2.66317 -0.63162,-5.1013 0,-2.43717 0.18543,-3.7149 0.63162,-5.10516 0.91847,-2.85728 3.11081,-4.31755 6.1062,-4.34942 v -4.9e-4 h 1.36901 l 1.16474,0.004 c 0.0811,0.0101 0.13617,0.0686 0.13617,0.15646 l -0.0188,3.43048 c 0,0.0811 -0.0464,0.13666 -0.11734,0.15404 h -1.45882 c -1.61673,0.0324 -2.73077,0.86341 -3.20642,2.33431 -0.25931,0.82334 -0.36941,1.72538 -0.36941,3.37543 0,1.65053 0.1101,2.55017 0.36941,3.37688 0.48531,1.49939 1.63605,2.32417 3.30783,2.32417 1.70703,0 2.86114,-0.82478 3.34404,-2.32417 0.19895,-0.6379 0.31147,-1.31878 0.35106,-2.35459 h 0.0188 v -17.12053 c 0,-0.2231 0.14825,-0.3728 0.37376,-0.3728 z m 106.01895,25.55139 h -3.42324 c -0.22455,0 -0.37135,-0.14922 -0.37135,-0.37666 v -17.36102 c 0,-0.22599 0.1468,-0.37665 0.37135,-0.37665 h 3.42324 c 0.22358,0 0.37231,0.15066 0.37231,0.37665 v 1.31541 h 0.0377 c 0.78229,-1.12756 2.34397,-2.10397 4.724635,-2.10397 2.12135,0 3.83321,0.86245 4.91007,2.40384 h 0.0382 c 1.37624,-1.50131 3.16295,-2.40384 5.73098,-2.40384 4.16545,0 6.51183,2.85535 6.51183,6.72623 v 11.42286 c 0,0.22745 -0.14969,0.37715 -0.37376,0.37715 h -3.42083 c -0.22309,0 -0.37134,-0.14922 -0.37134,-0.37666 v -10.44549 c 0,-2.32996 -1.1546,-3.94669 -3.3875,-3.94669 -2.15758,0 -3.42228,1.61576 -3.42228,3.94669 v 10.44549 c 0,0.22647 -0.14969,0.37666 -0.37134,0.37666 h -3.42469 c -0.22309,0 -0.37279,-0.14922 -0.37279,-0.37666 v -10.44549 c 0,-2.32996 -1.15315,-3.94669 -3.38268,-3.94669 -2.159015,0 -3.425155,1.61576 -3.425155,3.94669 v 10.44549 c 0,0.22647 -0.14825,0.37666 -0.37232,0.37666 z m -128.94049,-5.71071 c 0.29843,-0.93778 0.37231,-1.80361 0.37231,-3.34501 0,-1.53705 -0.0739,-2.36473 -0.37231,-3.34066 -0.52008,-1.50132 -1.67371,-2.36763 -3.34694,-2.36763 -1.67227,0 -2.86453,0.86631 -3.384126,2.36763 -0.296014,0.97641 -0.371345,1.80361 -0.371345,3.34066 0,1.5414 0.07533,2.40674 0.371345,3.34501 0.519116,1.50421 1.712346,2.3657 3.384126,2.3657 1.67323,-4.9e-4 2.82686,-0.86197 3.34694,-2.3657 z"
       fill="#204156"
       id="path25"
       style="clip-rule:evenodd;fill-rule:evenodd;stroke-width:0.482894" /></g></svg>
